<svg width="396" height="437" viewBox="0 0 396 437" fill="none" xmlns="http://www.w3.org/2000/svg">
<path d="M283.079 400C277.578 379.5 243.077 288.47 213.079 219C212.24 217.78 210.579 218 210.579 218C210.579 218 208.424 218.582 208.58 220.043C211.158 284.915 215.532 318.843 223.579 383C230.782 401.626 236.707 412.948 252.079 425C267.627 434.978 275.35 439.042 282.079 435.5C288.956 430.123 288.579 420.5 283.079 400Z" fill="#147A3D"/>
<path d="M36.0791 125.5C57.0791 133.5 136.815 170.105 199.531 203.511C200.624 204.427 200.579 206 200.579 206C200.579 206 199.782 208.442 198.45 208.241C139.169 203.935 105.552 200.07 47.0789 190C30.2401 181.932 21.6732 175.044 11.0791 158.5C2.38739 141.82 -0.0413221 132.319 3.38864 125.291C8.50134 118.152 15.0791 117.5 36.0791 125.5Z" fill="#147A3D"/>
<path d="M202.578 282L197.578 220.5L144.578 215C122.784 243.608 122.745 252.732 119.579 267C116.134 296.281 116.215 308.67 131.078 310.5C158.22 314.398 174.003 304.985 202.578 282Z" fill="#FFC928"/>
<path d="M191.65 277.242L187.938 231.287L148.588 227.178C132.407 248.555 132.379 255.372 130.028 266.034C127.47 287.914 127.53 297.171 138.565 298.539C158.717 301.451 170.435 294.418 191.65 277.242Z" fill="#FFDD3C"/>
<path d="M182.65 273.335L179.999 240.146L151.892 237.178C140.334 252.617 140.313 257.54 138.634 265.24C136.808 281.043 136.85 287.729 144.732 288.716C159.126 290.82 167.496 285.74 182.65 273.335Z" fill="#FFE463"/>
<path d="M325.079 388.5C293.907 376.22 279.098 318.032 220.25 210.28C219.025 207.867 219.455 206.678 221.722 204.78C224.38 202.66 226.186 205.322 230.251 207.28C331.767 263.67 401.62 291.707 395.579 341.5C393.988 355.633 391.308 362.299 384.079 372.5C371.079 388.5 346.577 395.837 325.079 388.5Z" fill="#147A3D"/>
<path d="M116.953 6.53948C147.443 20.4262 159.202 79.3064 212.361 189.976C213.457 192.45 212.966 193.614 210.604 195.392C207.839 197.371 206.174 194.618 202.217 192.451C103.775 130.852 35.4758 99.2155 44.1013 49.8049C46.4257 35.7743 49.4495 29.2569 57.1999 19.4457C71.0153 4.14431 95.8667 -1.9074 116.953 6.53948Z" fill="#147A3D"/>
<path d="M263.579 208.38L225.079 189.88L207.579 143.88C220.547 124.221 227.794 114.461 257.079 118.38C271.924 83.0478 278.31 65.0796 263.579 36.8804C261.079 32.8804 257.079 24.3804 263.579 19.8804C269.357 15.8805 277.066 26.2314 280.079 36.3804C290.837 72.604 287.63 92.2352 270.079 126.38C276.36 129.973 279.335 133.736 283.079 140.88C303.784 124.952 315.579 117.881 346.079 117.881C358.91 118.624 369.579 120.38 381.579 128.38C391.579 135.88 383.079 145.88 378.079 142.88C345.079 126.38 323.885 130.221 289.579 152.88C295.581 185.588 281.617 202.452 263.579 208.38Z" fill="#147A3D"/>
<path d="M54.0794 206.5C-44.4825 333.446 112.386 470.283 213.095 379.5C217.463 375.563 210.009 363.991 203.093 369C116.419 448.099 -21.3351 326.638 64.5823 216C71.5791 206.5 58.0792 201 54.0794 206.5Z" fill="#FF7A18"/>
<path d="M76.0786 221.5C-6.42087 320 115.578 430 197.079 358.5C202.579 353 195.723 340.833 185.079 349.5C115.079 406.5 21.0791 308 85.5791 233.5C91.6395 226.5 81.9415 214.5 76.0786 221.5Z" fill="#FF7A18"/>
<path d="M181.58 335C115.582 392 37.5792 299 98.5796 239C103.954 233.714 112.079 245.673 107.58 250.5C59.5803 302 127.58 365.5 171.58 324C177.412 318.5 187.582 329.817 181.58 335Z" fill="#FF7A18"/>
</svg>
